<svg id="Layer_1" enable-background="new 0 0 512 512" viewBox="0 0 512 512" xmlns="http://www.w3.org/2000/svg"><g><g><g><path d="m481.952 287.988 27.723-36.253c4.266-4.266 2.132-10.662-2.132-14.928-4.266-4.266-10.663-2.132-14.928 2.132l-23.458 31.987-23.458-31.987c-4.266-4.266-10.663-6.397-14.928-2.132-4.266 4.266-6.397 10.662-2.132 14.928l27.723 36.253-27.723 36.253c-4.266 4.266-2.132 10.663 2.132 14.928 2.132 2.132 4.266 2.132 6.397 2.132 4.266 0 6.397-2.132 8.53-4.266l23.458-31.987 23.458 31.987c2.132 2.132 4.266 4.266 8.53 4.266 2.132 0 4.266 0 6.397-2.132 4.266-4.266 6.397-10.663 2.132-14.928z"/><path d="m277.229 245.337v63.976c0 6.397-4.266 10.663-10.662 10.663-6.397 0-10.662-4.266-10.662-10.663s-4.266-10.663-10.662-10.663-10.662 4.266-10.662 10.663c0 17.06 14.928 31.987 31.987 31.987s31.987-14.928 31.987-31.987v-63.976c0-6.397-4.266-10.662-10.663-10.662-6.397-.001-10.663 4.265-10.663 10.662z"/><path d="m366.796 253.868c12.795 0 19.453 6.507 21.325 10.662 2.627 5.832 6.397 10.662 10.662 10.662 6.397 0 11.341-4.568 10.663-10.662-2.132-17.06-19.193-29.855-42.651-29.855s-42.651 14.928-42.651 31.987 12.703 27.26 38.293 31.524l4.357.463c17.06 2.132 21.962 6.908 20.33 10.849-2.306 5.574-11.798 10.477-24.594 10.477-12.795 0-18.468-5.663-21.325-10.663-3.453-6.043-5.143-10.813-10.663-10.663-6.394.174-9.043 4.85-8.53 10.663 2.132 17.06 19.193 29.855 42.651 29.855s42.651-14.928 42.651-31.987-12.232-28.922-38.065-31.306c-6.414-.592-23.75-1.125-23.778-11.344-.012-4.266 8.53-10.662 21.325-10.662z"/><path d="m437.169 362.627c-6.397 0-10.663 4.266-10.663 10.663v63.976c0 17.06-14.928 31.987-31.987 31.987h-341.205c-17.06 0-31.987-14.928-31.987-31.987v-309.218h405.181v74.639c0 6.397 4.266 10.662 10.663 10.662s10.663-4.266 10.663-10.662v-127.952c0-29.855-23.458-53.314-53.314-53.314h-341.206c-29.856 0-53.314 23.459-53.314 53.314v362.53c0 29.855 23.458 53.314 53.314 53.314h341.205c29.855 0 53.314-23.458 53.314-53.314v-63.976c-.002-6.397-4.266-10.662-10.664-10.662zm-298.554-298.555c6.397 0 10.662 4.266 10.662 10.662s-4.266 10.662-10.663 10.662-10.662-4.266-10.662-10.662 4.266-10.662 10.663-10.662zm-42.651 0c6.397 0 10.662 4.266 10.662 10.662s-4.266 10.662-10.662 10.662c-6.397 0-10.662-4.266-10.662-10.662s4.265-10.662 10.662-10.662zm-42.65 0c6.397 0 10.662 4.266 10.662 10.662s-4.266 10.663-10.662 10.663-10.662-4.266-10.662-10.662 4.264-10.663 10.662-10.663z"/></g></g></g><g/><g/><g/><g/><g/><g/><g/><g/><g/><g/><g/><g/><g/><g/><g/></svg>